<?xml version="1.0" standalone="no"?>
<!DOCTYPE svg PUBLIC "-//W3C//DTD SVG 20010904//EN"
 "http://www.w3.org/TR/2001/REC-SVG-20010904/DTD/svg10.dtd">
<svg version="1.0" xmlns="http://www.w3.org/2000/svg"
 width="512.000000pt" height="512.000000pt" viewBox="0 0 512.000000 512.000000"
 preserveAspectRatio="xMidYMid meet">
<metadata>
Created by potrace 1.14, written by Peter Selinger 2001-2017
</metadata>
<g transform="translate(0.000000,512.000000) scale(0.100000,-0.100000)"
fill="#000000" stroke="none">
<path d="M2570 5040 c0 -5 -14 -7 -32 -5 -18 2 -39 -1 -47 -8 -12 -10 -13 -9
-7 2 6 8 0 7 -18 -4 -14 -10 -26 -14 -26 -11 0 4 -10 0 -23 -9 -13 -8 -27 -12
-30 -8 -4 3 -7 1 -7 -6 0 -7 -4 -10 -10 -6 -5 3 -18 -3 -30 -15 -11 -11 -20
-17 -20 -13 0 4 -7 -2 -15 -13 -8 -10 -15 -16 -15 -12 0 7 -8 2 -62 -44 -12
-10 -25 -18 -30 -18 -5 0 -6 -5 -3 -10 4 -6 2 -9 -3 -8 -11 3 -45 -18 -74 -44
-10 -10 -18 -16 -18 -13 0 5 -30 -18 -56 -43 -8 -7 -14 -10 -14 -5 0 4 -7 -1
-15 -11 -8 -11 -15 -17 -15 -13 0 8 -12 -1 -47 -33 -9 -8 -20 -15 -25 -15 -5
0 -13 -7 -18 -15 -5 -8 -10 -11 -10 -6 0 5 -8 -1 -19 -12 -10 -12 -21 -19 -25
-15 -3 3 -6 2 -6 -4 0 -6 -9 -13 -21 -16 -13 -4 -18 -10 -13 -18 4 -7 3 -10
-3 -6 -6 4 -16 0 -23 -8 -7 -8 -18 -15 -24 -15 -6 0 -18 -9 -26 -19 -7 -11
-17 -18 -22 -15 -4 3 -11 -2 -14 -10 -3 -9 -10 -13 -15 -10 -5 3 -9 0 -9 -5 0
-6 -7 -11 -15 -11 -8 0 -15 -3 -15 -7 0 -5 -25 -24 -55 -43 -30 -19 -54 -38
-55 -42 0 -5 -5 -8 -11 -8 -7 0 -21 -10 -33 -22 -12 -13 -28 -24 -36 -26 -7
-2 -20 -11 -28 -20 -9 -11 -11 -12 -6 -2 4 9 -2 7 -13 -5 -35 -35 -61 -54 -66
-48 -3 2 -10 -5 -17 -16 -6 -12 -15 -19 -21 -16 -5 4 -9 2 -9 -3 0 -6 -16 -19
-36 -31 -21 -13 -32 -26 -28 -33 4 -7 3 -8 -5 -4 -12 8 -44 -18 -34 -28 4 -3
0 -6 -8 -6 -13 0 -44 -30 -112 -108 -15 -18 -24 -32 -21 -32 4 0 -2 -8 -12
-17 -10 -10 -20 -25 -22 -33 -2 -8 -9 -22 -15 -30 -22 -27 -48 -80 -41 -80 5
0 3 -5 -4 -12 -7 -7 -12 -20 -12 -31 0 -11 -4 -15 -12 -11 -6 4 -9 3 -5 -2 3
-5 -2 -25 -10 -44 -9 -19 -17 -48 -19 -64 -3 -17 -8 -33 -14 -36 -5 -3 -7 -14
-6 -25 2 -11 0 -24 -4 -30 -5 -5 -9 -23 -11 -40 -2 -16 -8 -36 -14 -44 -8 -12
-7 -13 5 -6 12 7 13 6 3 -6 -7 -8 -13 -34 -14 -58 -2 -23 -6 -44 -9 -46 -4 -2
-7 -23 -8 -45 -1 -23 -4 -46 -8 -51 -3 -5 1 -9 8 -9 9 0 9 -3 2 -8 -13 -9 -14
-13 -17 -129 -1 -51 -6 -93 -10 -93 -4 0 -4 -8 1 -17 10 -20 5 -44 -12 -55 -7
-5 -7 -8 2 -8 9 0 11 -7 7 -21 -4 -12 -3 -19 1 -16 5 3 9 -29 8 -71 0 -43 3
-84 7 -92 4 -8 10 -40 13 -70 12 -102 15 -124 22 -140 3 -8 8 -28 11 -45 3
-16 8 -34 12 -40 3 -5 6 -19 6 -30 0 -11 2 -22 5 -25 10 -10 28 -70 19 -64 -5
3 -9 0 -9 -5 0 -6 5 -11 10 -11 6 0 9 -3 8 -7 0 -5 1 -15 5 -23 3 -8 11 -33
18 -55 6 -22 17 -46 23 -54 9 -12 8 -13 -3 -7 -9 6 -8 1 3 -16 9 -14 13 -28 9
-31 -3 -4 -1 -7 5 -7 7 0 12 -8 12 -17 0 -10 7 -31 15 -47 8 -15 15 -35 15
-42 0 -8 5 -14 11 -14 5 0 7 -4 4 -10 -3 -5 1 -20 10 -33 8 -13 12 -27 8 -30
-3 -4 -1 -7 5 -7 7 0 12 -6 12 -12 0 -7 18 -51 41 -98 l41 -86 161 0 c101 0
165 4 169 11 5 6 8 4 8 -5 0 -13 1 -13 10 0 9 13 11 13 20 0 5 -8 10 -10 10
-4 0 7 19 11 48 11 127 -1 319 7 340 14 15 6 22 5 22 -4 0 -8 3 -8 9 2 6 9 10
10 16 2 4 -8 11 -9 18 -3 7 6 43 10 80 11 37 0 77 5 87 11 15 8 20 8 20 -2 0
-8 3 -9 8 -3 4 6 31 11 60 10 30 0 56 3 59 8 2 4 9 5 14 2 5 -4 15 -3 21 2 7
4 22 8 33 8 11 0 26 4 34 9 10 7 12 6 6 -3 -5 -9 3 -8 22 3 23 12 33 12 42 3
10 -9 12 -9 9 3 -2 8 3 14 11 12 7 -1 24 4 37 13 13 8 24 13 24 10 0 -3 13 1
29 9 16 9 31 12 35 9 3 -4 6 -2 6 4 0 12 37 26 59 23 7 -1 10 3 6 9 -3 6 1 11
9 11 9 0 16 5 16 11 0 5 4 8 9 4 5 -3 12 -1 16 5 3 6 25 20 48 31 22 12 47 28
55 35 7 8 20 14 28 14 8 0 13 4 10 8 -2 4 4 14 16 21 16 10 19 10 13 -1 -5 -7
11 5 34 27 22 21 41 36 41 32 0 -4 19 10 42 32 22 22 45 38 50 35 4 -3 8 2 8
11 0 8 12 20 26 25 14 6 23 14 20 19 -3 5 2 15 11 22 12 10 14 10 9 2 -4 -7
-2 -13 3 -13 10 0 15 14 12 33 0 4 4 7 10 7 14 0 39 25 39 39 0 6 7 11 15 11
8 0 15 4 15 9 0 4 15 25 33 44 49 55 77 94 77 106 0 6 4 11 9 11 5 0 12 11 15
25 4 14 10 24 14 21 4 -2 9 5 9 17 1 12 7 23 13 25 5 2 10 12 10 22 0 10 6 25
13 32 6 7 13 20 15 28 1 8 11 33 21 55 19 39 28 65 29 75 0 3 7 22 15 42 8 20
13 39 9 42 -3 3 0 6 6 6 7 0 11 3 10 8 -1 4 2 19 6 33 4 14 8 32 9 40 2 8 6
19 10 26 4 6 8 24 9 40 1 15 6 34 11 41 6 8 5 12 -4 12 -10 1 -10 3 2 10 11 6
15 18 11 35 -3 17 0 25 9 25 11 0 11 2 0 9 -11 7 -12 13 -5 23 6 7 10 46 10
85 -1 43 3 73 9 73 6 0 3 5 -5 10 -13 9 -13 10 0 10 13 0 13 1 0 10 -11 7 -11
10 -2 10 10 0 10 5 2 20 -8 15 -8 20 2 20 9 0 9 3 -2 10 -9 6 -11 10 -3 10 7
0 10 6 8 13 -3 6 -6 48 -8 92 -1 44 -7 86 -11 94 -7 10 -5 12 5 6 11 -6 12 -5
2 6 -7 7 -13 35 -13 61 0 26 -4 48 -8 48 -5 0 -8 16 -7 35 0 19 -3 35 -8 35
-4 0 -5 5 -2 10 3 6 2 10 -2 10 -5 0 -9 8 -10 18 -3 37 -16 79 -39 129 -13 28
-24 59 -24 67 0 9 -4 16 -10 16 -5 0 -10 12 -10 26 0 16 -4 23 -12 18 -8 -5
-9 0 -6 14 4 12 2 20 -3 16 -5 -3 -10 0 -10 5 -1 6 -2 17 -3 24 -1 6 -7 11
-13 10 -6 -1 -9 6 -6 17 3 11 0 20 -6 20 -6 0 -10 3 -9 8 3 11 -36 92 -44 92
-5 0 -8 6 -8 14 0 22 -26 66 -35 58 -5 -4 -5 1 -2 10 4 10 0 21 -8 25 -7 5
-14 11 -15 15 -4 22 -25 68 -31 68 -3 0 -14 18 -24 40 -10 22 -23 40 -28 40
-6 0 -8 3 -4 6 3 4 -7 26 -23 50 -17 23 -30 47 -30 53 0 6 -4 11 -10 11 -5 0
-10 8 -10 18 0 9 -9 23 -20 30 -12 7 -18 17 -15 22 3 6 -1 10 -9 10 -8 0 -13
6 -11 13 6 15 -14 41 -38 50 -11 4 -15 12 -11 18 4 8 3 9 -5 5 -6 -4 -14 0
-17 8 -3 9 -10 13 -15 10 -5 -3 -9 0 -9 5 0 6 -8 11 -17 11 -15 0 -16 2 -3 10
13 8 12 10 -3 10 -10 0 -43 14 -73 30 -29 17 -54 28 -54 24 0 -4 -7 -1 -15 6
-8 6 -18 9 -24 6 -5 -3 -11 -2 -13 4 -2 6 -24 11 -51 12 -26 1 -47 6 -47 10 0
10 -52 7 -67 -4 -6 -5 -14 -5 -18 2 -8 13 -25 13 -25 0z"/>
<path d="M3397 4568 c7 -8 9 -19 5 -23 -4 -5 -1 -5 6 -1 10 6 17 -6 10 -18 -2
-2 5 -12 14 -22 9 -11 18 -26 20 -34 2 -8 11 -21 21 -28 10 -8 17 -19 16 -25
-3 -25 1 -38 11 -32 6 4 9 3 8 -2 -4 -14 31 -93 42 -93 5 0 7 -7 4 -15 -4 -8
-1 -15 5 -15 6 0 11 -8 11 -17 0 -10 7 -27 15 -37 8 -10 12 -23 9 -27 -3 -5
-1 -9 4 -9 9 0 26 -56 23 -74 -1 -5 6 -3 15 5 16 13 16 12 5 -8 -8 -16 -8 -23
-1 -23 6 0 8 -4 5 -10 -3 -5 -1 -10 6 -10 7 0 10 -3 7 -6 -4 -3 0 -20 7 -39 8
-18 11 -35 8 -39 -4 -3 -1 -6 5 -6 7 0 12 -15 12 -35 0 -19 4 -35 8 -35 4 0 9
-12 10 -27 1 -16 6 -29 11 -31 4 -1 7 -16 5 -32 -2 -17 1 -30 6 -30 6 0 9 -3
9 -7 -1 -5 -1 -10 0 -13 1 -3 4 -21 7 -40 9 -65 11 -75 23 -103 6 -16 8 -33 5
-39 -4 -6 -2 -13 4 -17 6 -4 12 -23 14 -44 1 -20 7 -37 13 -37 5 0 3 -5 -5
-10 -13 -9 -13 -10 0 -10 8 0 16 -10 16 -22 2 -28 12 -78 21 -98 9 -21 10 -27
12 -51 0 -11 5 -18 9 -15 4 3 7 -8 6 -25 -1 -16 2 -29 8 -29 5 0 6 -5 2 -11
-3 -6 -2 -14 4 -18 6 -4 12 -21 14 -39 1 -21 8 -32 18 -32 13 0 13 -1 0 -10
-9 -6 -10 -10 -3 -10 6 0 10 -9 8 -20 -2 -11 0 -20 6 -20 5 0 9 -11 9 -24 0
-14 5 -28 11 -32 6 -3 9 -15 6 -25 -3 -11 -1 -17 4 -13 5 3 9 2 10 -3 2 -18 8
-40 20 -68 7 -16 13 -32 14 -35 6 -16 19 -49 30 -75 8 -16 11 -33 9 -37 -3 -4
0 -8 5 -8 6 0 11 -7 11 -15 0 -8 5 -15 11 -15 5 0 7 -5 4 -11 -4 -5 0 -18 8
-27 9 -9 15 -19 15 -22 0 -10 37 -85 46 -91 5 -4 6 -12 2 -17 -4 -6 3 -16 14
-22 11 -6 18 -16 14 -21 -3 -6 2 -19 12 -30 9 -10 13 -19 9 -19 -4 0 2 -8 13
-19 12 -10 19 -21 15 -25 -3 -3 -1 -6 5 -6 7 0 12 -5 12 -11 0 -18 75 -123
118 -164 12 -12 22 -25 22 -29 0 -12 27 -35 34 -29 3 4 6 1 6 -6 0 -18 90
-101 108 -101 9 0 13 -3 9 -6 -7 -8 17 -34 32 -34 6 0 11 -5 11 -11 0 -6 7 -8
16 -5 8 3 12 2 9 -4 -3 -5 6 -12 20 -16 14 -3 25 -10 25 -16 0 -5 4 -6 10 -3
6 3 10 1 10 -6 0 -7 3 -9 7 -6 3 4 17 0 30 -8 13 -9 23 -13 23 -10 0 3 14 -2
31 -10 17 -9 33 -14 36 -11 3 3 15 0 26 -6 12 -6 35 -11 51 -10 17 0 37 -5 45
-11 8 -7 12 -7 8 -1 -4 6 10 10 38 10 28 0 42 -4 38 -10 -4 -7 -1 -6 6 0 10 9
10 20 0 53 -7 22 -15 41 -18 41 -4 0 -7 8 -7 18 -1 25 -8 46 -17 53 -4 3 -9
20 -10 37 -1 18 -5 32 -9 32 -5 0 -8 7 -8 16 0 8 -4 12 -10 9 -6 -3 -7 1 -4 9
3 9 3 24 -2 34 -9 22 -11 28 -13 48 0 8 -5 13 -10 10 -5 -4 -7 3 -4 14 3 12 0
20 -6 20 -7 0 -9 5 -6 10 4 6 2 16 -3 23 -5 7 -8 20 -7 30 2 9 -1 17 -6 17 -6
0 -7 5 -4 10 3 6 2 10 -3 10 -6 0 -8 9 -5 20 3 11 1 20 -4 20 -5 0 -10 12 -11
26 -1 14 -5 31 -9 37 -4 6 -8 22 -9 35 -2 13 -7 29 -12 35 -5 7 -8 22 -7 34 1
12 -3 20 -8 16 -5 -3 -7 5 -5 18 2 13 -2 23 -7 22 -6 -1 -10 14 -10 33 1 19
-2 34 -7 34 -4 0 -8 11 -8 25 0 14 -4 25 -8 25 -8 0 -10 6 -14 49 -1 11 -6 17
-11 14 -5 -3 -8 1 -6 8 4 32 -1 50 -13 43 -7 -4 -8 -3 -4 4 4 6 0 24 -8 40 -8
16 -12 32 -9 36 4 3 1 6 -6 6 -7 0 -10 4 -7 9 3 4 -3 24 -13 44 -10 20 -14 34
-7 30 6 -3 3 3 -7 15 -11 11 -16 25 -13 30 3 5 -1 15 -9 22 -8 7 -12 16 -9 21
3 5 0 9 -7 9 -7 0 -10 3 -6 6 3 4 -1 13 -9 21 -8 9 -13 22 -10 30 3 7 -1 16
-8 19 -8 3 -16 19 -20 35 -3 17 -10 28 -15 25 -5 -3 -8 2 -7 12 0 9 -5 16 -12
14 -8 -1 -11 2 -7 9 8 11 -12 58 -30 71 -5 4 -6 8 -2 8 5 0 1 7 -7 16 -9 8
-14 19 -12 23 3 4 -3 13 -13 20 -12 9 -16 21 -13 34 3 11 1 18 -4 14 -6 -3
-16 3 -23 15 -10 16 -10 19 1 13 7 -3 5 0 -4 8 -10 8 -15 17 -11 20 3 4 1 7
-6 7 -7 0 -10 4 -7 9 3 5 -1 11 -9 15 -8 3 -15 12 -15 21 0 8 -5 15 -12 15 -6
0 -9 3 -5 6 3 4 -2 14 -11 23 -10 9 -11 12 -3 6 10 -7 8 -1 -4 17 -11 15 -24
28 -28 28 -5 0 -5 5 -2 10 3 6 1 10 -4 10 -6 0 -11 6 -11 13 0 7 -9 23 -21 35
-11 12 -17 27 -13 34 5 7 3 8 -5 4 -8 -5 -14 -1 -18 12 -3 11 -12 23 -20 26
-8 3 -11 10 -8 16 3 5 1 10 -4 10 -6 0 -11 5 -11 11 0 16 -47 69 -54 62 -3 -4
-6 1 -6 11 0 9 -7 19 -15 22 -8 4 -12 10 -9 15 3 5 -2 9 -10 9 -9 0 -16 4 -16
10 0 5 -22 32 -49 59 -27 27 -46 53 -43 57 4 5 -2 2 -12 -6 -12 -9 -17 -10
-12 -3 8 14 -35 63 -54 63 -6 0 -8 5 -5 10 3 6 -1 10 -10 10 -9 0 -14 4 -10 9
3 5 -3 12 -14 16 -11 3 -22 12 -25 20 -3 8 -13 15 -21 15 -9 0 -13 5 -10 10 3
6 1 10 -6 10 -6 0 -23 12 -37 28 -13 15 -21 20 -17 12 3 -8 -5 -3 -19 13 -14
15 -28 27 -32 27 -4 0 -15 10 -25 22 -11 11 -19 18 -19 14 0 -6 -16 6 -81 66
-16 14 -29 24 -29 21 0 -3 -12 7 -27 23 -15 16 -29 28 -32 27 -3 -2 -6 2 -6 7
0 6 -4 10 -10 11 -5 0 -17 6 -25 13 -8 7 -22 17 -30 21 -12 7 -13 6 -3 -7z
m754 -675 c13 -16 12 -17 -3 -4 -17 13 -22 21 -14 21 2 0 10 -8 17 -17z"/>
<path d="M731 3653 c4 -12 -24 -66 -41 -81 -8 -8 -10 -11 -3 -8 8 5 8 0 0 -18
-7 -13 -15 -22 -19 -20 -5 3 -8 -6 -8 -19 0 -14 -7 -30 -15 -37 -8 -7 -15 -19
-15 -26 0 -8 -5 -14 -11 -14 -6 0 -8 -9 -4 -20 4 -14 2 -20 -6 -18 -7 2 -14
-1 -14 -7 -2 -26 -17 -55 -26 -50 -5 3 -6 0 -3 -8 3 -8 -2 -22 -11 -31 -9 -9
-14 -16 -11 -16 3 0 -1 -12 -9 -27 -8 -15 -11 -31 -8 -36 3 -6 1 -7 -5 -3 -11
6 -16 -5 -13 -26 0 -4 -8 -12 -19 -18 -11 -6 -18 -15 -14 -21 3 -5 -2 -21 -11
-36 -12 -18 -13 -23 -4 -18 8 3 6 0 -3 -8 -10 -8 -15 -17 -11 -20 3 -4 1 -7
-6 -7 -7 0 -10 -4 -6 -9 3 -5 0 -13 -6 -16 -5 -4 -8 -14 -5 -22 3 -8 2 -12 -3
-9 -4 3 -14 -12 -21 -34 -7 -22 -18 -37 -23 -33 -6 3 -7 1 -3 -5 4 -6 0 -22
-9 -35 -8 -13 -12 -27 -8 -30 3 -4 1 -7 -6 -7 -7 0 -9 -4 -6 -10 3 -5 2 -10
-4 -10 -6 0 -7 -7 -4 -17 4 -11 3 -14 -5 -9 -7 4 -12 1 -12 -9 0 -9 -9 -34
-20 -56 -12 -22 -18 -44 -15 -49 3 -6 1 -10 -6 -10 -7 0 -9 -3 -6 -7 4 -3 -1
-12 -11 -20 -10 -9 -11 -11 -2 -7 13 7 13 5 2 -9 -8 -9 -10 -22 -6 -29 6 -9 3
-9 -9 1 -15 12 -17 12 -11 -3 3 -9 1 -22 -5 -30 -7 -8 -10 -20 -9 -27 2 -8 -2
-13 -8 -12 -6 1 -10 -8 -9 -20 1 -12 -2 -25 -7 -28 -6 -4 -11 -18 -11 -32 -1
-14 -6 -23 -10 -20 -5 3 -7 -1 -6 -8 1 -8 -5 -31 -14 -51 -10 -21 -17 -44 -17
-52 0 -8 -5 -18 -10 -21 -6 -4 -8 -11 -5 -16 4 -5 1 -9 -6 -9 -7 0 -10 -3 -6
-6 3 -4 0 -22 -8 -40 -8 -19 -14 -37 -15 -39 0 -3 0 -6 -1 -7 0 -2 -2 -10 -4
-18 -2 -8 -7 -26 -11 -39 -5 -16 -4 -22 4 -18 6 4 9 0 7 -10 -1 -10 4 -30 11
-45 11 -21 11 -28 1 -31 -6 -3 -3 -6 8 -6 17 -1 17 -3 5 -11 -12 -8 -12 -10
-1 -10 8 0 11 -7 9 -18 -3 -10 1 -23 9 -30 7 -7 13 -22 13 -33 0 -13 4 -18 12
-13 7 4 8 3 4 -5 -4 -6 -2 -18 4 -26 6 -8 9 -19 5 -25 -3 -5 -1 -10 5 -10 7 0
10 -7 6 -15 -3 -8 -2 -15 2 -15 4 0 13 -9 20 -21 11 -17 11 -20 0 -14 -7 3 -6
1 3 -7 9 -7 16 -16 17 -21 2 -12 35 -82 42 -87 4 -3 13 -19 20 -37 8 -17 18
-29 22 -27 4 3 8 -4 8 -15 0 -12 5 -21 10 -21 6 0 10 -7 10 -16 0 -9 5 -12 12
-8 6 4 8 3 4 -4 -3 -5 5 -24 19 -40 14 -16 25 -35 25 -42 0 -6 4 -8 10 -5 5 3
10 -1 10 -9 0 -9 5 -16 11 -16 5 0 7 -5 4 -10 -3 -5 2 -10 11 -10 10 0 15 -3
11 -6 -3 -3 5 -16 19 -29 13 -12 24 -25 24 -29 0 -14 84 -94 94 -89 5 3 6 1 2
-5 -7 -11 7 -27 44 -52 36 -24 57 -43 40 -34 -9 4 -7 -2 5 -13 11 -11 22 -19
24 -17 2 1 14 -7 27 -19 40 -37 53 -47 64 -47 6 0 8 -4 5 -10 -3 -5 1 -10 9
-10 9 0 16 -4 16 -9 0 -4 20 -19 44 -32 25 -13 42 -27 40 -31 -3 -4 -1 -8 5
-8 10 0 73 -38 99 -60 6 -6 12 -7 12 -3 0 4 4 4 8 -2 4 -5 16 -17 26 -25 18
-13 19 -13 12 0 -4 8 1 5 10 -8 9 -12 25 -22 35 -22 11 0 19 -5 19 -11 0 -6 7
-8 16 -5 8 3 12 2 9 -4 -6 -9 7 -14 21 -7 3 1 10 -6 15 -16 6 -9 14 -15 20
-12 5 4 9 2 9 -4 0 -9 26 -21 44 -20 5 0 12 -3 15 -8 3 -4 15 -15 25 -23 18
-13 19 -13 11 0 -4 8 3 6 16 -6 23 -20 44 -31 62 -32 5 0 16 -9 25 -20 9 -10
25 -18 35 -16 9 1 15 -2 11 -7 -3 -5 4 -9 15 -9 10 0 21 -3 23 -7 2 -5 18 -16
36 -26 28 -16 32 -16 32 -3 0 9 -4 16 -10 16 -5 0 -10 7 -10 16 0 8 -4 12 -10
9 -5 -3 -10 1 -10 9 0 8 -10 23 -23 33 -13 10 -26 25 -30 33 -20 40 -34 59
-40 53 -4 -3 -7 3 -7 15 0 12 -8 23 -20 27 -11 3 -19 10 -17 14 1 5 -17 37
-40 72 -23 35 -47 76 -54 91 -6 15 -15 25 -19 23 -4 -3 -7 1 -7 8 2 17 -45
110 -60 120 -7 4 -10 14 -7 22 4 8 1 15 -5 15 -6 0 -11 9 -11 20 0 11 -5 20
-11 20 -5 0 -8 4 -4 9 3 5 1 12 -5 16 -6 4 -8 10 -5 15 3 5 -3 18 -14 29 -13
13 -16 23 -10 27 8 4 8 9 -1 14 -6 4 -12 13 -14 21 -1 8 -7 23 -13 34 -6 11
-11 23 -12 28 -2 24 -13 64 -22 79 -5 10 -9 25 -9 33 0 8 -4 15 -10 15 -5 0
-7 7 -4 15 4 8 0 23 -7 32 -10 11 -10 14 -2 9 9 -5 11 -2 7 8 -3 9 -11 13 -17
9 -5 -3 -7 -1 -4 5 8 12 -28 102 -42 102 -5 0 -7 9 -4 20 3 11 1 20 -4 20 -5
0 -15 16 -23 35 -8 19 -18 35 -22 35 -5 0 -7 4 -3 9 8 15 -16 61 -29 54 -6 -4
-5 1 3 10 9 11 10 17 2 17 -6 0 -11 7 -11 15 0 8 -4 15 -10 15 -5 0 -7 7 -4
15 4 8 1 15 -5 15 -6 0 -11 11 -11 24 0 14 -4 28 -10 31 -5 3 -10 15 -10 26 0
10 -4 19 -9 19 -5 0 -8 8 -7 18 2 9 -3 27 -11 39 -8 12 -12 27 -8 33 3 5 1 10
-5 10 -6 0 -9 4 -5 9 3 5 0 13 -6 16 -5 4 -8 13 -5 21 3 8 1 14 -3 14 -5 0 -8
12 -6 26 1 17 -2 24 -10 20 -9 -3 -12 4 -10 22 3 30 -4 54 -14 48 -4 -3 -5 11
-3 30 3 22 0 34 -8 34 -8 0 -11 10 -8 28 2 16 -1 34 -8 40 -7 6 -11 23 -10 37
2 14 -2 25 -8 25 -6 0 -4 5 4 10 12 8 12 10 -5 11 -11 0 -14 3 -8 6 9 3 10 10
3 22 -5 10 -7 21 -4 24 3 3 0 15 -6 27 -9 17 -9 21 0 15 9 -6 9 -2 0 15 -6 12
-10 30 -7 41 3 10 0 20 -7 23 -7 3 -7 5 2 5 10 1 10 6 2 22 -7 11 -9 27 -6 35
3 8 2 14 -2 14 -4 0 -7 67 -7 149 0 82 3 147 8 144 10 -6 9 9 -3 27 -6 9 -5
17 2 21 6 4 10 18 9 33 -4 72 0 106 13 106 6 0 4 5 -4 10 -8 5 -10 10 -5 10 6
0 11 22 10 50 0 28 3 50 6 50 5 0 7 16 12 87 0 12 4 20 8 17 4 -2 10 13 13 34
3 20 8 47 10 59 2 13 0 26 -5 29 -5 3 -9 2 -8 -3z m0 -46 c-10 -9 -11 -8 -5 6
3 10 9 15 12 12 3 -3 0 -11 -7 -18z"/>
<path d="M3729 3110 c-1 -14 -2 -35 -2 -47 -1 -13 -4 -23 -7 -23 -7 0 -8 -8
-11 -55 -1 -14 -6 -28 -10 -31 -5 -3 -7 -10 -4 -15 4 -5 2 -9 -3 -9 -6 0 -8
-10 -4 -22 3 -13 1 -19 -5 -15 -6 4 -9 -6 -8 -23 1 -19 -3 -30 -11 -30 -8 0
-11 -6 -8 -15 4 -8 1 -21 -5 -29 -11 -13 -22 -46 -23 -73 -1 -7 -7 -14 -14
-17 -8 -3 -11 -12 -8 -20 3 -8 1 -17 -5 -21 -6 -3 -11 -15 -11 -26 0 -10 -4
-19 -10 -19 -5 0 -10 -7 -10 -15 0 -17 -20 -56 -33 -66 -5 -3 -8 -8 -6 -10 4
-8 -12 -49 -20 -49 -4 0 -8 -6 -8 -13 0 -14 -41 -77 -58 -89 -6 -5 -6 -8 -1
-8 6 0 0 -9 -12 -21 -12 -11 -20 -24 -17 -29 4 -6 -2 -7 -12 -3 -10 3 -15 3
-11 -1 7 -8 2 -14 -72 -93 -26 -28 -46 -54 -42 -57 3 -3 0 -6 -7 -6 -6 0 -32
-20 -56 -45 -25 -24 -45 -43 -45 -40 0 2 -12 -7 -27 -21 -14 -13 -40 -35 -56
-47 -17 -12 -40 -32 -53 -43 -12 -12 -25 -19 -28 -16 -3 3 -6 0 -6 -7 0 -8 -6
-11 -16 -7 -8 3 -13 2 -10 -3 6 -9 -22 -26 -37 -22 -5 1 -6 -3 -3 -8 6 -9 -22
-26 -36 -23 -5 1 -8 -3 -8 -8 0 -6 -5 -10 -11 -10 -6 0 -20 -10 -31 -22 -11
-13 -16 -17 -13 -10 6 11 3 12 -14 3 -11 -7 -21 -16 -21 -20 0 -5 -11 -8 -25
-6 -14 1 -25 -3 -25 -9 0 -12 -22 -24 -147 -74 -45 -18 -73 -25 -73 -18 0 6
-5 4 -10 -5 -5 -9 -20 -16 -32 -15 -13 1 -26 -2 -29 -7 -3 -4 -22 -9 -42 -10
-21 -1 -37 -6 -37 -12 0 -5 -5 -3 -10 5 -5 8 -10 10 -10 4 0 -9 -35 -14 -117
-18 -11 -1 -19 -4 -17 -7 2 -3 -30 -6 -70 -5 -41 1 -72 -2 -69 -6 4 -8 -14
-12 -32 -8 -5 1 -14 2 -20 1 -5 0 -53 -3 -105 -5 -52 -2 -101 -4 -108 -5 -8
-1 -10 -6 -6 -13 6 -10 4 -10 -7 -2 -16 13 -50 15 -64 3 -6 -4 -17 -4 -25 1
-8 5 -21 5 -32 -1 -13 -7 -18 -6 -18 2 0 9 -3 9 -14 0 -9 -8 -16 -8 -20 -2 -4
6 -18 6 -34 1 -16 -4 -36 -4 -45 2 -10 5 -17 5 -17 1 0 -4 -29 -8 -65 -8 -36
0 -65 4 -65 8 0 5 -5 5 -10 2 -6 -4 -49 -8 -96 -10 -47 -2 -87 -5 -89 -7 -9
-9 -9 -43 0 -41 6 1 11 -12 11 -29 1 -17 5 -33 10 -37 5 -3 9 -16 8 -28 -1
-13 3 -23 7 -23 5 0 9 -5 9 -11 0 -6 6 -25 14 -42 22 -50 29 -71 28 -79 -1 -5
2 -8 7 -8 5 0 12 -7 15 -16 4 -10 2 -13 -7 -8 -6 4 -3 -3 7 -15 11 -12 21 -29
22 -37 1 -9 9 -23 17 -32 13 -15 30 -53 27 -60 0 -1 8 -14 20 -29 11 -14 20
-32 20 -39 0 -8 5 -14 10 -14 6 0 10 -6 10 -14 0 -8 6 -21 13 -28 15 -16 44
-60 45 -71 1 -4 12 -18 24 -32 36 -38 49 -55 43 -55 -3 0 9 -16 27 -36 18 -20
32 -41 30 -46 -1 -5 2 -7 8 -3 5 3 10 2 10 -3 0 -4 27 -37 60 -71 33 -35 60
-67 60 -73 0 -5 5 -6 10 -3 6 3 10 1 10 -5 0 -6 5 -8 12 -4 6 4 8 3 5 -3 -8
-12 36 -56 46 -46 4 3 7 2 7 -4 0 -5 9 -20 20 -33 11 -13 20 -19 20 -14 0 5 4
4 8 -1 4 -6 22 -21 40 -34 18 -12 29 -27 26 -33 -4 -7 -2 -8 4 -4 6 4 19 -1
29 -11 10 -10 31 -24 46 -30 15 -7 27 -17 27 -23 0 -6 5 -8 10 -5 6 3 10 1 10
-4 0 -6 7 -11 15 -11 8 0 15 -5 15 -11 0 -5 4 -8 9 -4 6 3 14 -3 20 -12 6 -10
11 -15 11 -11 0 4 12 1 27 -7 15 -8 31 -11 36 -8 6 3 7 1 4 -4 -4 -6 6 -13 22
-16 16 -3 36 -13 44 -22 9 -8 23 -15 32 -15 9 0 13 -4 10 -10 -3 -5 0 -7 9 -4
8 3 21 2 28 -2 7 -5 20 -9 28 -11 8 -1 16 -6 18 -11 2 -6 12 -8 22 -5 11 3 20
1 20 -4 0 -5 10 -9 22 -10 12 -1 34 -7 50 -14 15 -6 35 -9 43 -5 9 3 18 0 21
-7 2 -7 17 -14 32 -15 44 -4 61 -8 68 -15 12 -12 26 -8 18 6 -6 9 -5 9 7 1 14
-12 71 -23 122 -24 16 0 26 -4 23 -8 -3 -5 1 -9 9 -9 8 0 12 4 9 9 -3 4 4 8
16 8 12 0 19 -4 16 -9 -8 -12 27 -8 36 4 5 7 8 6 8 0 0 -7 28 -10 73 -8 39 2
78 3 85 3 6 0 20 0 30 0 9 0 29 0 45 0 15 0 27 3 27 7 0 5 27 8 61 8 33 0 64
4 69 10 5 6 25 10 44 10 20 -1 36 2 36 7 0 5 5 6 10 3 6 -3 16 -3 23 2 12 8
26 12 62 18 11 2 21 4 23 5 1 2 7 4 12 5 6 1 12 4 15 5 3 1 9 3 14 4 5 0 13 4
17 9 4 4 18 7 31 7 13 0 23 4 23 9 0 5 16 12 35 15 19 4 35 11 35 16 0 5 9 7
20 5 11 -2 20 -1 20 3 0 9 49 32 67 32 7 0 13 5 13 10 0 6 9 10 20 10 11 0 20
5 20 10 0 6 7 10 15 10 8 0 15 5 15 11 0 5 4 8 10 4 5 -3 18 3 29 14 11 11 32
23 47 27 14 4 28 13 31 20 3 8 9 12 13 9 4 -3 13 2 20 10 7 8 19 15 26 15 8 0
14 5 14 10 0 6 8 14 17 17 20 8 49 30 72 56 8 9 21 17 29 17 7 0 15 7 18 15 3
8 14 17 25 20 10 4 19 13 19 21 0 8 12 19 26 24 15 6 22 14 18 22 -4 6 -3 8 4
4 6 -3 18 4 27 16 8 13 18 22 20 21 3 -2 6 0 6 5 1 4 10 13 21 20 10 7 15 18
12 24 -4 7 -2 8 4 4 7 -4 12 -2 12 3 0 6 8 11 17 11 9 0 14 3 11 6 -4 3 1 14
10 23 33 35 52 61 52 72 0 5 3 8 8 6 7 -5 30 15 35 30 1 5 5 7 9 6 4 -2 4 5 1
14 -4 9 -2 14 3 10 5 -3 22 14 38 39 15 24 32 44 38 44 5 0 7 4 4 9 -4 5 -2
11 2 13 5 1 31 37 58 78 27 41 52 77 57 78 4 2 5 8 1 13 -3 5 0 9 6 9 6 0 8 5
5 10 -3 6 -1 10 5 10 6 0 8 5 5 10 -3 6 1 10 9 10 10 0 13 6 10 15 -4 8 -2 15
4 15 10 0 27 47 23 63 -1 5 2 6 7 3 5 -3 20 21 33 54 13 33 27 60 32 60 4 0 6
4 2 9 -3 5 -1 12 5 16 5 3 10 15 10 26 0 10 6 19 13 19 9 0 8 3 -2 9 -11 7
-10 10 4 18 9 5 16 12 15 14 -2 6 12 62 19 74 6 11 11 30 15 58 1 10 7 22 12
25 6 4 7 18 3 32 -4 14 -7 18 -8 11 -1 -11 -4 -12 -12 -4 -8 8 -20 8 -35 3
-15 -6 -24 -6 -24 0 0 6 -9 6 -24 0 -16 -6 -27 -5 -35 3 -9 9 -14 9 -20 -2 -5
-8 -10 -9 -12 -3 -2 6 -22 12 -44 14 -22 1 -42 5 -45 9 -3 4 -18 9 -35 10 -16
2 -33 7 -36 11 -3 5 -17 9 -31 10 -15 1 -24 6 -21 12 4 5 -3 7 -15 4 -16 -4
-19 -2 -15 10 4 9 2 13 -5 9 -12 -8 -62 12 -62 25 0 4 -3 7 -7 6 -11 -3 -73
35 -73 44 0 4 -6 8 -13 8 -6 0 -31 18 -55 40 -23 22 -47 40 -53 40 -5 0 -8 4
-5 9 3 5 -8 18 -25 29 -17 10 -32 23 -32 28 -1 5 -5 8 -9 7 -5 -2 -8 2 -8 8 0
7 -12 24 -27 39 -16 15 -29 33 -31 41 -2 7 -12 19 -23 27 -11 7 -17 17 -14 22
3 4 -2 10 -10 14 -8 3 -15 12 -15 21 0 8 -4 15 -10 15 -5 0 -10 6 -10 13 0 7
-9 19 -19 27 -11 7 -18 17 -15 21 2 4 -2 14 -11 22 -8 8 -16 21 -17 28 -2 8
-9 20 -16 27 -7 8 -10 17 -7 22 3 4 -2 11 -11 14 -8 3 -12 10 -9 16 3 5 1 10
-4 10 -6 0 -11 9 -11 21 0 12 -4 18 -11 13 -7 -4 -10 -1 -7 7 2 7 -4 22 -14
33 -10 11 -17 25 -15 30 2 6 -3 17 -10 25 -8 7 -12 20 -9 28 3 7 -1 16 -10 20
-8 3 -13 11 -10 19 3 7 0 14 -5 16 -5 2 -11 13 -12 26 0 12 -5 22 -9 22 -4 0
-8 7 -8 15 0 8 -5 15 -11 15 -5 0 -7 4 -4 10 3 5 -1 22 -9 38 -8 16 -12 32 -9
36 4 3 1 6 -5 6 -7 0 -11 3 -10 8 1 4 -4 20 -10 35 -7 16 -9 33 -6 39 4 7 2 8
-4 4 -7 -4 -12 -1 -12 9 0 23 -24 95 -32 95 -4 0 -5 11 -2 24 2 14 -1 28 -7
32 -8 5 -9 3 -4 -6 5 -8 4 -11 -2 -7 -6 4 -9 18 -8 32 2 14 0 23 -5 20 -5 -3
-11 1 -13 7 -3 7 -6 2 -8 -12z"/>
</g>
</svg>
